<svg xmlns="http://www.w3.org/2000/svg" xmlns:xlink="http://www.w3.org/1999/xlink" viewBox="0 0 1342.69 1611.38"><defs><style>.cls-1{fill:#b3002b;}.cls-2{fill:#c3002f;}.cls-3{fill:#fff;}.cls-4{fill:#ccc;}.cls-5{fill:#999;}.cls-6{fill:url(#linear-gradient);}</style><linearGradient id="linear-gradient" x1="52.91" y1="646.76" x2="1289.77" y2="646.76" gradientUnits="userSpaceOnUse"><stop offset="0.35" stop-color="#c3002f"/><stop offset="0.65" stop-color="#b3002b"/></linearGradient></defs><title>Red Outline</title><g id="Layer_2" data-name="Layer 2"><g id="Layer_10" data-name="Layer 10"><path class="cls-1" d="M1147,294.15A110,110,0,0,1,1133.19,313a394.54,394.54,0,0,0-15.82-39c-13.28-28.24-29.21-52.77-47.36-72.93-23.8-26.42-51.42-45.39-82.09-56.36l-30.66-11a192.36,192.36,0,0,0-23.12-14.45c-28-15-60.13-24.67-91.19-34-20.23-6.1-41.14-12.41-57.85-19.58-19.94-8.56-27.19-15.54-29.76-19.89L739.85,19.63,728.23,0,711.84,15.86,690,37l-1.05,1-2.12-3.55L671.35,8.56h0V43.72h0l15.23,25.56A109.61,109.61,0,0,1,702.5,50L724.36,28.8,739.84,55c13,21.91,56.15,34.94,97.92,47.53,30.21,9.12,61.46,18.54,87.9,32.68a171.12,171.12,0,0,1,23,14.62l33.2,11.88c27.84,10,53,27.27,74.78,51.46,17,18.84,31.93,41.9,44.46,68.54a395.61,395.61,0,0,1,22.8,62c.83-.5,1.55-.95,2.23-1.38l.15-.1.34-.21c.83-.54,1.55-1,2.17-1.45l.13-.08.35-.25c.83-.57,1.53-1.07,2.15-1.53l.08-.06.36-.27c.81-.6,1.51-1.13,2.13-1.61l0,0,.36-.29c.82-.64,1.51-1.21,2.14-1.74l.32-.27c.8-.68,1.5-1.28,2.11-1.83l.23-.2,0,0,0,0c.77-.69,1.46-1.33,2.11-1.95l0,0,.13-.12a123.36,123.36,0,0,0,21-27l0,0v0l.2-.33c.43-.74.89-1.56,1.5-2.65l.28-.51.06-.11c.47-.86.93-1.73,1.39-2.6l.28-.53.16-.29c.43-.84.85-1.69,1.28-2.54l.27-.54c.07-.16.15-.31.22-.45.4-.83.79-1.66,1.18-2.49l.26-.54c.09-.2.19-.4.28-.61.38-.81.74-1.64,1.1-2.45l.25-.56.32-.71c.35-.82.69-1.64,1-2.47l.17-.42c.14-.32.27-.64.4-1,.33-.81.65-1.63,1-2.46l.13-.33c.15-.38.3-.76.45-1.16.31-.81.61-1.62.91-2.44l.12-.31c.16-.42.32-.85.47-1.28.29-.81.58-1.63.87-2.47.19-.55.39-1.11.58-1.68l.81-2.45.57-1.77c.26-.82.52-1.65.77-2.49.19-.61.38-1.23.56-1.86.25-.82.49-1.65.73-2.48l.54-1.94c.24-.84.46-1.68.69-2.53.18-.66.35-1.33.53-2,.22-.85.43-1.69.64-2.52s.34-1.41.52-2.12.4-1.69.59-2.54.34-1.45.5-2.18.38-1.7.56-2.55.32-1.5.48-2.27.35-1.71.52-2.57l.45-2.33c.17-.86.33-1.72.49-2.6s.29-1.6.43-2.41.3-1.72.45-2.61.26-1.59.39-2.38l0-.09c.14-.88.28-1.75.41-2.63s.25-1.63.37-2.45v-.11l0-.13c.12-.83.25-1.66.36-2.5s.23-1.66.34-2.49l0-.14.07-.52c.09-.71.19-1.42.27-2.13s.18-1.47.27-2.21l.07-.53.05-.49c.09-.71.18-1.42.26-2.14s.17-1.56.25-2.34l0-.49.08-.75c.07-.63.14-1.25.2-1.86.08-.81.15-1.62.23-2.44l0-.51.07-.76c.06-.61.12-1.23.17-1.84.07-.8.14-1.61.2-2.42l0-.61.07-.86c.05-.58.1-1.15.14-1.73.06-.8.12-1.61.17-2.43l0-.71.07-1c0-.54.08-1.07.11-1.61.06-.86.11-1.73.16-2.6l0-.73.06-1c0-.49.06-1,.08-1.48.06-1,.1-2,.15-3l0-.61,0-1,.06-1.29c.06-1.37.11-2.75.16-4.13V166l0-.9,0-.83q.11-3,.16-5.95c0-.2,0-.4,0-.59,0-1.1.11-2.19.22-3.26.07-.59.13-1.06.2-1.48s.18-1.31.36-2.28c.14-.67.27-1.22.35-1.55h0c.1-.44.27-1.18.52-2.08.2-.69.38-1.24.48-1.54v0l0,0c.13-.41.36-1.1.66-1.91.26-.65.49-1.19.61-1.47l0-.08c.18-.4.47-1.08.83-1.83.24-.49.5-1,.75-1.45l0-.05h0c.26-.48.57-1.06,1-1.75.28-.46.57-.91.87-1.37s.74-1.1,1.1-1.6.66-.89,1-1.32.79-1,1.2-1.46.72-.82,1.08-1.19.83-.88,1.32-1.35.76-.73,1.18-1.11,1-.92,1.37-1.19l0,0h0l1.2-1c.55-.42,1-.76,1.45-1.06l.06,0c.41-.28.82-.57,1.24-.84.62-.4,1.15-.71,1.47-.9l.08,0,0,0c.42-.25.83-.49,1.25-.71.65-.36,1.2-.62,1.52-.78l.06,0,0,0q.66-.33,1.32-.63c.7-.32,1.28-.54,1.62-.68h0c.26-.11.76-.31,1.38-.54s1.41-.47,1.84-.6c.26-.09.71-.23,1.24-.38a43.76,43.76,0,0,1,11.65-1.59,42.29,42.29,0,0,1,21.28,5.7c.78.45,1.39.85,1.75,1.09l0,0c.39.24.77.5,1.16.77.68.48,1.22.89,1.53,1.14l0,0,0,0c.42.32.82.64,1.21,1,.57.47,1,.89,1.43,1.26s.86.8,1.24,1.18.85.86,1.25,1.3.82.91,1.26,1.43c.3.36.65.79,1.05,1.3s.9,1.2,1.25,1.7l0,.06c.29.41.57.82.83,1.23.47.71.84,1.35,1.18,1.94.14.24.4.68.68,1.2.41.76.8,1.54,1.16,2.31l0,.08.2.45c0,.11.1.22.14.33l0,.07,0,.1c2.12,4.88,4.2,10,6.18,15.3,26.71,66,36.53,129.54,29.18,189a306.82,306.82,0,0,1-37.51,113.4l6.51,2.43,17.4,6.5-1.94,18.48-48.47,462.86h75.46l-2.6,26.35-27.88,282.8-2.14,21.65h-77.48l-.48,4.57-1.31,12.57-11.11,6-517,280.63-11.45,6.21h0v20.48l8.59-4.66,11.45-6.21,517-280.63,11.1-6,8.33-4.52,1-9.42.1-1h77.58l1.61-16.24,2.13-21.64,27.88-282.8,2.6-26.35,2-19.77h-75.33l46.39-443,1.93-18.47,1.45-13.86-13.05-4.88-4.83-1.8a323.83,323.83,0,0,0,30-101.46c7.72-62.46-2.47-129-30.28-197.75-2.06-5.47-4.23-10.82-6.43-15.9l0-.07,0-.11,0-.12,0-.07-.12-.28-.2-.45-.26-.58-.13-.25c-.44-.93-.91-1.86-1.39-2.76-.39-.72-.75-1.34-1-1.77-.4-.69-.94-1.6-1.62-2.65-.36-.56-.76-1.15-1.21-1.79h0l0,0v0c-.47-.67-1.05-1.47-1.77-2.41-.58-.75-1.1-1.37-1.49-1.84-.62-.74-1.21-1.4-1.8-2s-1.18-1.26-1.79-1.86-1.13-1.1-1.77-1.69-1.19-1.08-2-1.8c-.53-.44-1.11-.91-1.77-1.41l0,0h0c-.44-.34-1.22-.94-2.22-1.64-.53-.38-1.09-.75-1.69-1.13s-1.37-.9-2.52-1.57a60.41,60.41,0,0,0-30.34-8.14,61.48,61.48,0,0,0-16.46,2.25c-.6.16-1.21.34-1.84.55s-1.5.47-2.52.84c-.84.3-1.53.57-2,.77s-1.29.51-2.28,1c-.62.27-1.27.58-2,.94-.41.2-1.22.59-2.22,1.13-.56.31-1.17.66-1.84,1.06h-.06l0,0c-.41.24-1.17.69-2.1,1.29-.58.38-1.16.77-1.82,1.23l0,0c-.52.37-1.24.88-2.07,1.51-.42.33-.85.66-1.31,1l-.06,0-.42.35c-.67.55-1.31,1.1-1.93,1.66s-1.12,1-1.7,1.6-1.3,1.29-1.89,1.93-1,1.1-1.53,1.7-1.16,1.37-1.73,2.09-1,1.27-1.44,1.9-1.05,1.48-1.58,2.3-.86,1.33-1.24,2c-.62,1-1.09,1.88-1.42,2.5l-.19.35v0c-.35.65-.64,1.23-.92,1.79-.54,1.11-1,2.08-1.18,2.6l0,.07c-.16.35-.5,1.15-.89,2.17-.46,1.21-.8,2.25-1,2.75h0c-.14.41-.41,1.23-.7,2.25-.36,1.26-.6,2.3-.73,2.87s-.3,1.25-.5,2.26c-.24,1.28-.4,2.33-.51,3.14-.08.52-.18,1.26-.28,2.17-.15,1.47-.26,3-.31,4.47,0,.3,0,.6,0,.91,0,1.89-.1,3.81-.16,5.73l0,.51v.2l0,.92v.3c0,1.28-.09,2.55-.14,3.82,0,.32,0,.66,0,1v.17l0,1v0l0,.61c-.05.95-.09,1.9-.14,2.85,0,.46,0,.88-.08,1.29v.08l-.06,1,0,.76v.11c0,.8-.09,1.59-.14,2.37q0,.65-.09,1.32v.17l-.07,1,0,.74,0,.17c0,.71-.09,1.43-.15,2.14l-.12,1.51v.1l-.07.85,0,.65,0,.18c0,.7-.11,1.41-.17,2.11l-.15,1.63v.09l-.07.77,0,.53,0,.21c-.07.7-.13,1.41-.2,2.11-.06.53-.12,1.07-.17,1.61l0,.12-.08.76,0,.51,0,.18c-.07.68-.14,1.36-.22,2s-.15,1.27-.22,1.9l0,.12-.06.49-.06.54c-.08.7-.17,1.41-.26,2.11s-.16,1.24-.24,1.88l0,.12-.07.51,0,.15,0,.22c-.09.72-.19,1.44-.28,2.15s-.23,1.54-.34,2.31v.05l0,.15,0,.13,0,.28-.3,2c-.12.8-.25,1.6-.38,2.41l0,.09v.06c-.12.78-.24,1.53-.37,2.28s-.28,1.67-.43,2.49-.27,1.53-.4,2.28-.31,1.65-.47,2.47l-.42,2.2c-.16.8-.33,1.61-.5,2.42s-.3,1.43-.45,2.13-.35,1.61-.53,2.41-.3,1.38-.46,2.05-.37,1.59-.56,2.38-.33,1.34-.49,2-.39,1.56-.6,2.35c-.16.63-.33,1.25-.49,1.87-.21.78-.42,1.57-.64,2.35l-.51,1.81c-.22.78-.44,1.54-.67,2.3l-.52,1.74c-.24.76-.47,1.53-.72,2.3l-.51,1.58,0,.06-.74,2.26c-.18.52-.36,1-.53,1.53-.27.78-.53,1.53-.8,2.27l-.42,1.15-.12.31c-.27.75-.55,1.49-.83,2.23l-.4,1-.14.35c-.29.76-.59,1.5-.89,2.23-.09.24-.19.47-.29.71l0,.11-.16.4-1,2.28-.19.41-.06.15-.25.56-1,2.24-.16.33,0,.11-.27.56c-.35.76-.7,1.51-1.06,2.25l-.1.19,0,.08-.29.58c-.38.77-.74,1.5-1.11,2.22l-.11.2-.29.55,0,0,0,0c-.38.73-.77,1.46-1.16,2.18l-.39.69c-.49.9-.89,1.6-1.25,2.22l-.15.25,0,.06,0,.07Z"/><path class="cls-2" d="M659.89,1584.69l-517-280.63-11.11-6-1.31-12.57-.48-4.57H52.48l-2.14-21.65L22.46,976.44l-2.6-26.35H95.32L46.84,487.23l-1.93-18.48,17.4-6.5,6.5-2.43A306.82,306.82,0,0,1,31.3,346.42c-7.35-59.44,2.47-123,29.18-189,2-5.27,4.06-10.42,6.18-15.3.48-1.11,1-2.23,1.61-3.33.22-.41.45-.81.69-1.22.34-.58.71-1.21,1.17-1.92.28-.43.56-.84.85-1.25l0-.06c.34-.48.75-1.06,1.24-1.7h0c.41-.52.76-1,1-1.28.43-.51.85-1,1.26-1.43s.84-.89,1.24-1.3.81-.79,1.26-1.19.85-.78,1.41-1.25q.6-.49,1.2-1l0,0,.06,0c.32-.25.86-.66,1.55-1.15.37-.26.75-.51,1.15-.77l0,0c.34-.22,1-.63,1.74-1.09a42.38,42.38,0,0,1,21.28-5.69A43.89,43.89,0,0,1,117.18,118c.52.15,1,.29,1.23.38.43.13,1.08.33,1.83.6s1.1.42,1.39.54h0c.34.14.92.36,1.62.67l1.33.64h0l.08,0c.33.16.88.42,1.51.77.43.23.86.48,1.28.73l.07,0,.06,0c.31.19.84.5,1.46.9.42.27.83.56,1.24.84l0,0c.44.3.92.64,1.49,1.08s.83.66,1.23,1,.81.68,1.4,1.21c.39.36.77.72,1.17,1.11s.87.87,1.29,1.31.73.8,1.1,1.22.81,1,1.21,1.47.67.87,1,1.3.72,1,1.11,1.61.59.92.9,1.42c.4.69.73,1.28,1,1.72s.51,1,.75,1.45c.38.79.67,1.47.84,1.86l0,.07c.12.28.35.82.6,1.46.31.82.54,1.52.68,1.93v.05l0,0c.09.29.27.82.47,1.52.25.87.42,1.6.52,2v0c.07.28.21.86.35,1.59.18.92.29,1.72.36,2.24s.13.87.19,1.48c.1.94.17,1.9.21,2.85l0,.29v.75q.06,3,.16,5.9c0,.28,0,.56,0,.84l0,.89c.05,1.41.1,2.82.16,4.22,0,.44,0,.87.06,1.31l0,1,0,.6c0,1,.09,2,.15,3,0,.49.05,1,.08,1.48l.06,1,0,.75c.05.86.1,1.72.16,2.57,0,.55.07,1.1.11,1.65l.07.91.05.75c0,.8.11,1.6.17,2.4,0,.57.09,1.15.14,1.72l.07.86.06.72c.06.78.12,1.55.19,2.32s.11,1.26.17,1.88l.07.73.05.56c.08.79.15,1.59.23,2.37s.13,1.27.2,1.91l.08.7.05.51c.08.78.17,1.56.25,2.33l.24,2,.07.66.05.39c.09.78.19,1.56.28,2.33s.2,1.48.29,2.22l.06.43,0,.4c.1.75.2,1.49.31,2.24s.23,1.62.35,2.42l0,.22c.12.85.25,1.7.38,2.56s.27,1.75.41,2.61l0,.1.39,2.39c.14.87.3,1.74.45,2.6s.28,1.62.43,2.42.32,1.73.49,2.59.29,1.55.45,2.33.35,1.72.52,2.58l.48,2.25c.18.86.37,1.71.56,2.56s.33,1.46.49,2.18l.6,2.54c.17.7.34,1.4.52,2.11s.43,1.69.64,2.53c.18.67.35,1.34.53,2,.23.84.45,1.68.69,2.52l.54,1.93c.24.84.48,1.67.73,2.49.18.63.37,1.25.56,1.86.25.83.51,1.66.77,2.5l.57,1.75c.27.83.54,1.66.81,2.47.19.54.37,1.08.56,1.61l0,.08c.28.82.56,1.63.86,2.45l.51,1.4.08.2c.3.82.6,1.63.91,2.45.15.37.29.74.44,1.12l.14.36c.32.82.65,1.63,1,2.45l.39.95.18.43c.35.83.69,1.65,1,2.44l.35.78.22.51c.36.82.73,1.64,1.11,2.47l.28.6.25.54c.4.83.79,1.66,1.19,2.48.07.16.15.31.23.47l.27.53c.42.85.84,1.7,1.27,2.54l.16.29.28.53c.46.87.92,1.75,1.38,2.59l.07.13.28.49c.42.75,1,1.73,1.49,2.64l.23.38a123.19,123.19,0,0,0,21,27l0,0,0,0,.07.07c.66.62,1.37,1.27,2.18,2l.21.2c.63.56,1.33,1.16,2.12,1.83l.37.32c.61.51,1.3,1.07,2.12,1.72l.35.28,0,0c.62.49,1.31,1,2.1,1.6l.38.28.07.06c.63.46,1.33,1,2.14,1.52l.37.25.1.08c.65.44,1.37.92,2.2,1.46l.35.22.15.1c.66.42,1.39.87,2.21,1.36h0a395.61,395.61,0,0,1,22.8-62c12.53-26.64,27.49-49.7,44.46-68.54,21.78-24.19,46.94-41.5,74.78-51.46L394,149.8a171.12,171.12,0,0,1,23-14.62c26.44-14.14,57.69-23.56,87.9-32.68C546.68,89.91,589.87,76.88,602.83,55L618.32,28.8,640.18,50A110,110,0,0,1,656.1,69.28l15.24-25.56V8.57L655.89,34.49l-2.13,3.57L652.7,37,630.84,15.86,614.45,0,602.83,19.63,587.34,45.8c-2.57,4.35-9.82,11.33-29.76,19.89C540.87,72.86,520,79.17,499.73,85.27c-31.07,9.37-63.18,19.06-91.2,34a193,193,0,0,0-23.11,14.45l-30.66,11c-30.67,11-58.29,29.93-82.09,56.36-18.15,20.15-34.08,44.69-47.37,72.93a397,397,0,0,0-15.81,39,110.13,110.13,0,0,1-13.78-18.88c-.07-.13-.16-.27-.25-.42-.45-.78-.9-1.6-1.26-2.23l0-.05,0-.05-.28-.49,0-.06c-.39-.72-.79-1.46-1.18-2.21v-.05l-.29-.53-.11-.23c-.38-.72-.74-1.45-1.1-2.18l-.28-.57,0,0,0,0-.14-.28c-.35-.72-.7-1.47-1.05-2.22l-.26-.55v0l0,0c-.06-.13-.13-.27-.19-.41-.34-.75-.67-1.48-1-2.22l-.24-.53-.28-.63c-.31-.72-.62-1.47-.93-2.21l-.19-.45-.34-.82c-.3-.73-.59-1.47-.88-2.22l-.15-.37-.06-.16-.32-.81c-.29-.76-.56-1.5-.84-2.24l-.06-.17v-.05c-.16-.44-.31-.84-.45-1.24-.28-.77-.54-1.51-.8-2.26l0-.06h0l0-.06c-.17-.47-.33-.94-.49-1.42-.26-.76-.51-1.52-.76-2.28l0-.12-.48-1.5c-.25-.78-.48-1.55-.72-2.32-.17-.56-.35-1.14-.52-1.72-.22-.76-.45-1.54-.67-2.31l-.51-1.81c-.21-.77-.43-1.55-.64-2.34-.16-.63-.33-1.25-.49-1.87l-.6-2.37c-.17-.67-.33-1.33-.49-2s-.38-1.59-.56-2.39-.31-1.36-.47-2.05-.35-1.6-.52-2.41-.3-1.4-.45-2.12-.33-1.61-.49-2.42-.29-1.49-.43-2.22-.32-1.63-.47-2.45-.27-1.52-.4-2.29-.29-1.64-.43-2.47l-.33-2,0-.25,0-.09,0-.23-.36-2.26c-.13-.81-.24-1.62-.36-2.43l0-.22c-.12-.78-.23-1.54-.34-2.31s-.18-1.31-.26-2l0-.15-.06-.42-.05-.43,0-.24-.24-1.85c-.09-.72-.18-1.46-.26-2.2l-.05-.41-.08-.65v-.08l-.21-1.79L168.9,200l-.05-.54-.08-.73v-.1l-.18-1.69c-.07-.7-.14-1.42-.2-2.13v-.11l-.06-.57-.07-.74v-.1l-.15-1.67c-.06-.69-.12-1.4-.17-2.1v-.09l-.06-.73-.07-.87c-.05-.55-.09-1.08-.13-1.61-.06-.76-.11-1.52-.17-2.28l-.05-.76-.06-.94c0-.51-.08-1-.11-1.52-.05-.76-.09-1.52-.14-2.28v-.18l0-.75-.06-1v-.09c0-.43-.06-.86-.08-1.29,0-.94-.09-1.9-.14-2.86l0-.6,0-1,0-.27c0-.3,0-.61,0-.92-.06-1.36-.1-2.72-.15-4.07v-.06l0-.89c0-.27,0-.51,0-.75-.06-1.86-.11-3.74-.16-5.63v-1.3l-.05-.58c-.06-1.2-.15-2.4-.27-3.59-.1-.93-.21-1.67-.29-2.18-.1-.79-.26-1.83-.49-3-.21-1.06-.41-1.91-.51-2.33s-.37-1.6-.73-2.85c-.3-1.07-.57-1.88-.7-2.27s-.5-1.53-1-2.79c-.38-1-.72-1.76-.88-2.14l0,0c-.2-.48-.63-1.48-1.21-2.67-.31-.64-.66-1.3-1.07-2.08-.31-.56-.78-1.43-1.39-2.44-.41-.69-.81-1.33-1.29-2s-1.06-1.58-1.59-2.31-.92-1.23-1.42-1.87-1.15-1.43-1.74-2.11-1-1.19-1.58-1.75-1.19-1.24-1.83-1.87-1.14-1.09-1.67-1.57c-.86-.78-1.56-1.36-2-1.74-.62-.51-1.19-1-1.75-1.39-.82-.63-1.49-1.11-2.05-1.5h0l-.07,0c-.66-.47-1.23-.86-1.8-1.22-.92-.6-1.68-1-2.08-1.28l0,0-.05,0c-.7-.42-1.33-.78-1.93-1.1-1-.52-1.79-.93-2.18-1.12h0c-.7-.35-1.35-.65-2-.93-1-.45-1.84-.78-2.28-1s-1.19-.48-2-.77-1.83-.63-2.49-.83-1.21-.38-1.81-.54a61.47,61.47,0,0,0-16.49-2.26,60.38,60.38,0,0,0-30.33,8.14c-1.15.67-2.06,1.26-2.52,1.56-.62.4-1.15.75-1.68,1.12-1.07.75-1.87,1.37-2.26,1.68l-.06,0c-.66.51-1.22,1-1.76,1.41-.84.71-1.52,1.33-2,1.78s-1.21,1.14-1.79,1.71-1.2,1.22-1.79,1.87-1.18,1.31-1.79,2c-.37.44-.89,1-1.48,1.82-.72.93-1.31,1.75-1.74,2.37l0,0c-.49.69-.89,1.28-1.27,1.87-.67,1-1.21,2-1.6,2.63s-.7,1.22-1,1.8c-.82,1.52-1.57,3.08-2.25,4.64-2.21,5.09-4.37,10.45-6.44,15.93-27.81,68.75-38,135.29-30.28,197.74a323.83,323.83,0,0,0,30,101.46l-4.82,1.8-13,4.88L27,470.63l1.93,18.47,46.39,443H0l2,19.77,2.6,26.35L32.43,1261l2.13,21.64,1.6,16.24h77.58l.11,1,1,9.42,8.33,4.52,11.1,6,517,280.63,11.45,6.21,8.58,4.66h0V1590.9Z"/><polyline class="cls-1" points="671.34 256.07 1271.97 480.57 1188.38 1278.81 671.34 1559.43"/><polyline class="cls-2" points="671.34 256.07 70.71 480.57 154.31 1278.81 671.34 1559.43"/><path class="cls-3" d="M719.19,63c39.48,66.71,219.75,53.9,245.28,144,12.78-3.5,12.78-12.86,9.3-26.9,105.21,37.63,132,185.1,133.28,192.75.78-.23,1.57-.46,2.34-.71l.78-.24c1.07-.35,2.14-.71,3.19-1.08l.78-.28c1-.37,2.08-.76,3.11-1.16l.78-.3c1-.4,2-.82,3-1.25l.77-.33c1-.43,2-.87,3-1.33l.75-.35c1-.47,2-.94,2.91-1.42l.73-.38c1-.49,1.91-1,2.86-1.51l.7-.39c1-.53,1.88-1.06,2.81-1.61l.67-.4q1.4-.84,2.76-1.71l.62-.4c.92-.59,1.83-1.2,2.74-1.81l.57-.4c.91-.63,1.81-1.27,2.71-1.93l.51-.38c.9-.67,1.8-1.35,2.69-2.05l.44-.35c.9-.72,1.8-1.44,2.69-2.18l.35-.31q1.37-1.14,2.7-2.34l.23-.21c.93-.83,1.84-1.67,2.74-2.53l.07-.07a146.61,146.61,0,0,0,25.15-32.25c.07-.13.15-.25.22-.37.6-1,1.19-2.09,1.78-3.15l.39-.7c.54-1,1.07-2,1.6-3,.17-.32.34-.63.5-.95.5-1,1-1.93,1.46-2.9l.57-1.14c.46-.93.9-1.88,1.35-2.83.2-.43.41-.86.61-1.3.42-.92.84-1.86,1.25-2.79l.63-1.43c.4-.91.78-1.84,1.17-2.76.21-.52.43-1,.65-1.56.37-.91.73-1.82,1.09-2.74.21-.55.43-1.11.65-1.66l1-2.74c.22-.58.43-1.17.65-1.76l1-2.72c.21-.62.43-1.24.64-1.87l.9-2.72.63-1.95c.29-.9.57-1.81.84-2.72.21-.68.42-1.36.62-2,.27-.91.53-1.82.79-2.73l.6-2.12.75-2.74.57-2.19c.24-.91.47-1.83.7-2.75.19-.75.37-1.51.56-2.27.22-.92.43-1.83.65-2.75s.36-1.57.53-2.36.41-1.83.61-2.75l.51-2.43c.19-.92.38-1.85.56-2.78s.33-1.66.49-2.49.35-1.85.52-2.78.31-1.72.46-2.58l.48-2.78c.15-.88.29-1.76.43-2.65s.3-1.86.44-2.79.28-1.82.41-2.72.27-1.86.4-2.8.26-1.87.38-2.8.25-1.86.37-2.8.23-1.92.35-2.89.22-1.85.32-2.78.22-2,.33-3,.2-1.83.29-2.75.19-2.06.29-3.09.18-1.83.26-2.75.17-2.12.26-3.18c.07-.91.15-1.81.22-2.72l.24-3.3.18-2.68c.08-1.15.14-2.32.21-3.48l.15-2.57c.06-1.24.12-2.5.18-3.76,0-.79.08-1.57.11-2.36.06-1.46.11-2.93.17-4.4l.06-1.79c.07-2.08.12-4.17.17-6.28v-.05c0-.59,0-1.16.11-1.72,0-.21.06-.4.09-.6.05-.37.1-.74.17-1.1s.1-.44.15-.66.14-.65.23-1,.14-.44.22-.67.19-.57.29-.85.18-.44.28-.66.22-.53.35-.79.21-.42.33-.62.26-.49.41-.73.24-.4.37-.59.3-.46.46-.67.28-.38.43-.56.33-.42.5-.62l.47-.51c.18-.2.36-.38.55-.57l.5-.47.6-.51.53-.43.64-.46c.19-.13.37-.27.56-.39l.67-.41.59-.34.71-.35.59-.29c.26-.12.51-.21.77-.31s.39-.17.59-.24.61-.2.91-.29.31-.11.47-.15h0a19.7,19.7,0,0,1,5.23-.72,18.25,18.25,0,0,1,9.21,2.44h0c.26.15.52.32.77.49s.32.2.47.31.45.33.67.5l.52.41.59.53.54.51.53.55.54.62c.15.18.31.37.46.57s.36.49.54.74.27.37.39.57.38.61.56.93c.1.17.2.33.29.5.27.5.52,1,.76,1.56h0q3.11,7.14,5.84,14.47c54.81,135.1,26.4,235.79-21.85,305.87l34,12.7-51.24,489.36h75.61l-27.88,282.8h-77.35l-2.73,26.08-517,280.63-517-280.63-2.74-26.08H74.23L46.34,969.93H122L70.71,480.57l34-12.7C56.44,397.79,28,297.1,82.84,162q2.75-7.32,5.84-14.47c.23-.55.49-1.07.76-1.57.09-.17.19-.33.29-.5.18-.32.36-.63.55-.93s.27-.38.4-.57.35-.5.54-.74.3-.39.46-.57l.54-.62c.17-.19.35-.37.53-.55l.54-.51.59-.53.52-.41c.22-.17.44-.34.67-.5s.31-.21.47-.31.5-.34.76-.49h0a18.25,18.25,0,0,1,9.21-2.44,19.7,19.7,0,0,1,5.23.72h0l.47.15c.3.09.61.18.91.29s.39.16.59.24.51.19.76.31.4.19.6.29l.71.35.58.34.68.41c.19.12.37.26.56.39s.43.3.63.46.36.28.54.43.4.33.59.51l.51.47c.18.19.37.37.55.57l.46.51c.18.2.35.41.51.62s.29.37.43.56.31.44.46.67l.37.59c.15.24.28.48.41.73s.23.41.33.62.24.53.35.79.19.43.28.66.2.57.29.85.15.45.22.67.16.64.23,1,.11.43.15.66.12.73.17,1.1c0,.2.06.39.09.6.06.56.09,1.13.11,1.72v.05c0,2.11.1,4.2.17,6.28l.06,1.79c0,1.47.11,2.94.17,4.4,0,.79.07,1.57.11,2.36.06,1.26.11,2.52.18,3.76l.15,2.57c.07,1.16.13,2.33.21,3.48,0,.9.12,1.79.18,2.68.08,1.1.15,2.21.24,3.3.07.91.14,1.81.22,2.72.08,1.06.17,2.13.26,3.18s.17,1.83.26,2.75.19,2.06.29,3.09.19,1.83.29,2.75.21,2,.32,3l.33,2.78c.12,1,.23,1.93.35,2.89s.24,1.87.37,2.8.25,1.87.38,2.8.26,1.87.4,2.8.27,1.81.4,2.72l.45,2.79c.14.89.28,1.77.43,2.65l.48,2.78c.15.86.3,1.72.46,2.58s.35,1.86.52,2.78.32,1.67.49,2.49.37,1.86.56,2.78l.51,2.43c.2.92.4,1.84.61,2.75s.35,1.58.53,2.36.43,1.83.65,2.75c.19.76.37,1.52.56,2.27.23.92.46,1.84.7,2.75l.57,2.19.75,2.74c.2.71.39,1.42.59,2.12.27.91.53,1.82.8,2.73.2.68.41,1.36.61,2,.28.91.56,1.82.85,2.72l.63,1.95c.29.91.59,1.82.9,2.72.21.63.43,1.25.64,1.87.32.91.63,1.82,1,2.71.21.6.43,1.19.65,1.78l1,2.72c.22.56.43,1.12.65,1.67.36.92.72,1.83,1.09,2.74l.65,1.56c.39.92.77,1.84,1.17,2.76l.63,1.43c.41.94.83,1.87,1.25,2.79.2.44.41.87.61,1.3.45.95.89,1.9,1.35,2.83.18.38.38.76.56,1.14.49,1,1,1.94,1.47,2.9.16.32.33.63.5.95.53,1,1.05,2,1.6,3l.39.71c.59,1.05,1.18,2.11,1.78,3.14l.21.35a146.68,146.68,0,0,0,25.15,32.26l.08.08c.9.86,1.82,1.7,2.74,2.53l.23.21c.89.8,1.79,1.58,2.7,2.35.12.09.23.2.35.3.89.74,1.78,1.46,2.69,2.18l.44.35c.88.7,1.78,1.38,2.69,2.05l.51.38c.89.66,1.8,1.3,2.71,1.93l.57.4c.9.61,1.82,1.22,2.74,1.81l.62.4q1.37.87,2.76,1.71l.67.4c.93.55,1.86,1.08,2.81,1.61l.7.39c.94.51,1.9,1,2.86,1.51l.73.38c1,.48,1.93.95,2.91,1.42l.75.35c1,.46,2,.9,3,1.33l.77.33c1,.43,2,.85,3,1.25l.78.3c1,.4,2.06.79,3.11,1.17l.78.27q1.58.56,3.18,1.08l.79.24c.77.25,1.56.48,2.34.71,1.32-7.65,28.06-155.12,133.28-192.75-3.48,14-3.48,23.4,9.3,26.9C403.74,116.93,584,129.74,623.49,63c30.21,29.24,24.25,63,24.25,63l23.6-39.57L694.93,126S689,92.27,719.19,63m5.16-38.39L702.5,45.79a110,110,0,0,0-15.92,19.32L671.35,39.55,656.1,65.12a110,110,0,0,0-15.92-19.33L618.32,24.64,602.83,50.81c-13,21.91-56.15,34.94-97.91,47.54-30.21,9.11-61.46,18.54-87.9,32.67a171.12,171.12,0,0,0-23,14.62l-33.2,11.88c-27.84,10-53,27.27-74.78,51.46-17,18.84-31.93,41.9-44.46,68.55a395.54,395.54,0,0,0-22.8,62h0c-.83-.5-1.55-.94-2.22-1.37l-.17-.11-.33-.21c-.83-.54-1.55-1-2.19-1.46l-.13-.09-.33-.23c-.84-.58-1.55-1.08-2.18-1.54l-.05,0-.38-.29c-.79-.59-1.48-1.11-2.1-1.59l0,0-.37-.29c-.79-.63-1.48-1.19-2.1-1.71l-.36-.3c-.79-.67-1.48-1.27-2.1-1.83l-.27-.24c-.78-.71-1.49-1.36-2.14-2l-.07-.06-.08-.08a123.26,123.26,0,0,1-21-27l-.24-.42c-.42-.71-.88-1.53-1.49-2.62l-.28-.51-.08-.13c-.45-.83-.91-1.7-1.37-2.57l-.28-.53-.15-.29q-.66-1.27-1.29-2.55l-.26-.53c-.08-.15-.16-.31-.23-.46-.4-.83-.8-1.66-1.19-2.49l-.26-.56c-.09-.2-.18-.39-.28-.59-.37-.82-.74-1.64-1.1-2.46l-.23-.52-.33-.75c-.35-.81-.69-1.63-1-2.45l-.2-.46-.39-.94c-.33-.8-.65-1.62-1-2.44l-.15-.39c-.14-.36-.29-.72-.43-1.09L167,270.9l-.07-.2-.51-1.39c-.3-.83-.58-1.64-.87-2.46l-.05-.17c-.18-.5-.35-1-.52-1.51-.28-.82-.55-1.65-.82-2.47l-.57-1.76c-.27-.84-.52-1.67-.77-2.49l-.57-1.87-.72-2.49-.54-1.93c-.24-.84-.47-1.68-.69-2.53-.18-.66-.35-1.33-.53-2-.22-.84-.43-1.69-.64-2.54s-.35-1.39-.51-2.09c-.21-.85-.41-1.69-.6-2.54s-.34-1.46-.5-2.19-.38-1.69-.56-2.55l-.48-2.27c-.17-.85-.35-1.7-.52-2.57s-.31-1.55-.45-2.33-.33-1.72-.49-2.59-.29-1.6-.43-2.41-.31-1.74-.45-2.61-.26-1.54-.38-2.31l0-.17,0-.12-.39-2.5c-.13-.85-.26-1.7-.38-2.55l0-.24c-.11-.8-.23-1.6-.34-2.41s-.21-1.49-.31-2.24l0-.4-.06-.43c-.1-.74-.19-1.48-.29-2.22s-.19-1.6-.29-2.4l0-.32-.06-.57c-.09-.69-.17-1.38-.25-2.07s-.17-1.59-.26-2.39l0-.44-.08-.7c-.07-.64-.13-1.28-.2-1.92s-.15-1.57-.22-2.36l-.06-.57-.07-.74c-.06-.62-.11-1.24-.17-1.86-.07-.8-.13-1.6-.2-2.39l0-.65-.07-.82c-.05-.59-.1-1.17-.14-1.76-.06-.81-.12-1.62-.17-2.43l-.06-.73-.06-.94c0-.54-.08-1.07-.11-1.61-.06-.84-.11-1.69-.15-2.53l0-.81-.06-.94c0-.5-.06-1-.08-1.5-.06-1-.1-2-.15-3l0-.66,0-1c0-.43,0-.85-.06-1.28-.06-1.34-.11-2.69-.16-4v-.18l0-.86c0-.29,0-.57,0-.86q-.1-2.93-.16-5.9v-.8l0-.3q-.06-1.41-.21-2.79c-.06-.59-.13-1.07-.19-1.47s-.18-1.33-.36-2.27c-.14-.7-.28-1.28-.35-1.56v0c-.1-.44-.27-1.18-.52-2.07-.2-.68-.38-1.21-.47-1.5l0-.06,0,0c-.13-.42-.36-1.11-.68-1.94-.24-.64-.47-1.17-.6-1.46l0-.07c-.16-.38-.44-1-.82-1.83l0,0v0c-.24-.48-.48-1-.74-1.43s-.57-1-1-1.71c-.29-.48-.58-.95-.89-1.41-.41-.62-.75-1.12-1.11-1.62s-.65-.87-1-1.3-.81-1-1.23-1.48-.71-.81-1.08-1.21-.82-.86-1.29-1.31-.79-.76-1.18-1.12c-.57-.51-1.07-.92-1.39-1.19l-1.24-1c-.62-.47-1.16-.85-1.45-1.06l-.09-.06-1.21-.82c-.63-.4-1.16-.72-1.48-.9l0,0-.06,0c-.42-.25-.85-.49-1.28-.73-.64-.35-1.19-.62-1.52-.78l-.08,0h0c-.44-.22-.89-.43-1.33-.63-.71-.32-1.3-.55-1.65-.69h0c-.46-.19-.9-.36-1.34-.52-.78-.28-1.42-.48-1.85-.61s-.71-.23-1.23-.37a43.62,43.62,0,0,0-11.67-1.6A42.29,42.29,0,0,0,84.24,118c-.77.44-1.4.86-1.74,1.08l0,0-1.14.76c-.69.49-1.23.9-1.55,1.15l-.06,0,0,0q-.6.47-1.2,1c-.55.47-1,.89-1.4,1.24s-.86.8-1.24,1.18-.88.89-1.29,1.34-.79.89-1.23,1.4c-.3.36-.66.8-1.08,1.34s-.87,1.17-1.2,1.64l-.07.09c-.28.4-.55.8-.82,1.21h0c-.46.72-.84,1.36-1.17,1.94-.16.26-.41.69-.71,1.25-.57,1.07-1.12,2.19-1.6,3.29-2.12,4.89-4.2,10-6.18,15.31-26.72,66-36.53,129.54-29.18,189a306.82,306.82,0,0,0,37.51,113.4l-6.5,2.43-17.4,6.5,1.93,18.48L95.31,945.93H19.86l2.6,26.36,27.88,282.79,2.14,21.65H130l.48,4.58,1.31,12.56,11.11,6,517,280.63,11.45,6.21,11.45-6.21,517-280.63,11.1-6,1.32-12.56.48-4.58h77.48l2.14-21.65,27.88-282.79,2.59-26.36h-75.45l48.47-462.86,1.94-18.48-17.4-6.5-6.51-2.43a306.82,306.82,0,0,0,37.51-113.4c7.35-59.45-2.47-123-29.18-189-1.85-4.92-3.79-9.73-5.76-14.31l-.5-1.51-.7-1.18c-.27-.54-.55-1.09-.84-1.63s-.55-1-.69-1.22c-.33-.58-.7-1.22-1.17-1.94-.26-.4-.54-.81-.82-1.21l0-.05c-.35-.5-.75-1.06-1.24-1.69s-.77-1-1.07-1.32c-.45-.54-.85-1-1.26-1.43s-.82-.88-1.24-1.3-.81-.79-1.26-1.2-.85-.77-1.41-1.24q-.59-.5-1.2-1l0,0,0,0c-.32-.25-.86-.66-1.54-1.14-.38-.27-.77-.52-1.16-.77l0,0-.07,0c-.34-.23-1-.64-1.76-1.1a42.32,42.32,0,0,0-21.27-5.69,43.76,43.76,0,0,0-11.65,1.59c-.53.15-1,.29-1.25.38-.43.13-1.07.33-1.83.61s-1.14.43-1.39.53h0c-.35.14-.93.37-1.64.69-.45.2-.89.41-1.33.63l0,0,0,0c-.33.16-.88.42-1.53.78-.42.23-.84.47-1.25.72l-.06,0-.07,0c-.32.19-.84.5-1.46.89l-1.23.84-.06,0c-.44.31-.91.65-1.46,1.07s-.84.66-1.24,1-.82.7-1.38,1.2-.8.74-1.18,1.11-.93.92-1.34,1.36-.71.77-1.08,1.21-.8.94-1.19,1.44-.67.86-1,1.31-.72,1-1.1,1.6-.6.92-.88,1.39c-.41.69-.73,1.26-1,1.73h0l0,0c-.25.48-.5.95-.74,1.44-.38.77-.67,1.44-.84,1.84l0,.11c-.21.47-.4.94-.59,1.43-.32.83-.54,1.52-.68,1.93l0,.06v0c-.1.29-.28.83-.48,1.52-.25.88-.42,1.62-.52,2.07s-.22.89-.35,1.58c-.18.93-.29,1.73-.36,2.25s-.13.89-.2,1.48c-.11,1.08-.18,2.17-.22,3.27,0,.13,0,.26,0,.4v.1q-.06,3-.16,6l0,.86,0,.86V162c0,1.35-.09,2.7-.15,4l-.06,1.32,0,.94,0,.61c-.05,1-.09,2-.15,3,0,.5,0,1-.08,1.47l-.06,1,0,.67c0,.89-.1,1.77-.16,2.66,0,.55-.07,1.1-.11,1.66l-.07.89,0,.75c-.05.8-.11,1.6-.17,2.4,0,.6-.09,1.19-.14,1.79l-.07.79,0,.64c-.07.8-.13,1.61-.2,2.41,0,.6-.11,1.21-.17,1.82l-.07.78,0,.51c-.08.81-.15,1.62-.23,2.43-.07.64-.14,1.28-.2,1.92l-.08.68-.06.55-.24,2.29-.24,2-.07.6-.06.5c-.09.75-.18,1.49-.28,2.23s-.19,1.47-.28,2.21l-.06.43,0,.22c-.11.81-.21,1.62-.33,2.42s-.23,1.61-.34,2.41l0,.22,0,.26c-.11.77-.22,1.54-.34,2.3s-.26,1.68-.4,2.51v.12c-.14.83-.27,1.66-.41,2.48s-.3,1.75-.45,2.61v0l-.42,2.36c-.16.86-.32,1.73-.49,2.59l-.45,2.33c-.17.86-.35,1.72-.52,2.58l-.48,2.26c-.18.85-.37,1.7-.56,2.55s-.33,1.46-.5,2.19-.39,1.69-.6,2.54l-.51,2.1c-.21.85-.43,1.69-.64,2.53-.18.67-.35,1.34-.53,2l-.69,2.52-.54,1.94c-.24.83-.48,1.66-.73,2.48-.18.63-.37,1.25-.56,1.86-.25.84-.51,1.67-.77,2.49l-.57,1.77c-.27.82-.54,1.65-.82,2.46l-.57,1.68q-.43,1.25-.87,2.46c-.16.44-.32.87-.47,1.3l-.12.3c-.3.81-.6,1.63-.91,2.44-.15.4-.31.79-.47,1.19l-.11.3c-.32.82-.65,1.64-1,2.44-.13.33-.26.65-.4,1l-.17.42c-.35.83-.69,1.65-1,2.46l-.33.74-.24.53c-.36.82-.72,1.65-1.1,2.46-.09.21-.19.41-.29.62l-.25.53c-.39.83-.78,1.67-1.18,2.49l-.23.46-.26.53c-.43.85-.85,1.7-1.28,2.53l-.16.3-.28.54c-.46.86-.92,1.74-1.39,2.59l-.06.12-.28.49c-.41.74-1,1.71-1.48,2.63l-.25.41a123.26,123.26,0,0,1-21,27l-.11.11-.07.06c-.65.62-1.34,1.26-2.11,1.95l-.29.26c-.63.56-1.31,1.15-2.09,1.81l-.36.31.06,0c-.62.52-1.33,1.09-2.16,1.75l-.36.29,0,0-2.13,1.62-.34.25-.1.08c-.6.44-1.31.94-2.15,1.52l-.36.25-.11.08c-.64.44-1.36.91-2.18,1.45l-.34.22-.15.1-2.23,1.37a395.54,395.54,0,0,0-22.8-62c-12.54-26.65-27.49-49.71-44.46-68.55-21.78-24.19-46.94-41.5-74.78-51.46l-33.2-11.88a170.62,170.62,0,0,0-23-14.62c-26.43-14.13-57.68-23.56-87.89-32.67-41.77-12.6-85-25.63-97.92-47.54L724.35,24.64Z"/><polygon class="cls-1" points="1268.46 1252.73 671.34 1252.73 671.34 969.93 1296.34 969.93 1268.46 1252.73"/><polygon class="cls-2" points="671.34 1252.73 74.22 1252.73 46.34 969.93 671.34 969.93 671.34 1252.73"/><path class="cls-3" d="M356.54,1319.15V1252.6h22.65q11.21,0,17.06,4.53t5.85,13.48a14.4,14.4,0,0,1-2.45,8.23,15.8,15.8,0,0,1-7.17,5.67,14.62,14.62,0,0,1,8.29,5.5,16.14,16.14,0,0,1,2.92,9.71q0,9.38-6,14.4t-17.08,5ZM368,1280.62h11.26q5.36,0,8.37-2.44a8.42,8.42,0,0,0,3-6.93q0-4.93-2.79-7.13t-8.69-2.19H368Zm0,8.5v20.8h12.76q5.4,0,8.44-2.7a9.53,9.53,0,0,0,3-7.5q0-10.37-10.53-10.6Z"/><path class="cls-3" d="M496.54,1289.44H469.4v20.48h31.72v9.23h-43.2V1252.6h42.89v9.33H469.4v18.37h27.14Z"/><path class="cls-3" d="M564.7,1309.92h30v9.23H553.22V1252.6H564.7Z"/><path class="cls-3" d="M684.1,1303.65H658.51l-5.36,15.5H641.22l25-66.55h10.3l25,66.55h-12Zm-22.37-9.32h19.15l-9.58-27.6Z"/><path class="cls-3" d="M776,1293.55H763.2v25.6H751.72V1252.6H775q11.44,0,17.66,5.17t6.21,15a18.76,18.76,0,0,1-3.2,11.18,20.26,20.26,0,0,1-8.91,6.93l14.84,27.71v.6h-12.3Zm-12.8-9.32H775q5.81,0,9.08-3a10.32,10.32,0,0,0,3.26-8.06q0-5.35-3-8.28t-9-3H763.2Z"/><path class="cls-3" d="M900.79,1252.6v44.47q0,10.61-6.73,16.8t-17.95,6.19q-11.36,0-18-6.1T851.42,1297V1252.6h11.44v44.52q0,6.68,3.36,10.19t9.89,3.52q13.25,0,13.25-14.08V1252.6Z"/><path class="cls-3" d="M990.33,1302a8,8,0,0,0-3.06-6.76q-3.06-2.38-11-4.8a53.37,53.37,0,0,1-12.71-5.4q-9-5.7-9-14.9A16.25,16.25,0,0,1,961,1256.9q6.51-5.2,16.91-5.21a28.29,28.29,0,0,1,12.29,2.56,20.31,20.31,0,0,1,8.49,7.29,18.77,18.77,0,0,1,3.09,10.49H990.33a10.47,10.47,0,0,0-3.24-8.16q-3.26-2.94-9.28-2.95-5.64,0-8.74,2.42a8.11,8.11,0,0,0-3.11,6.77,7.3,7.3,0,0,0,3.36,6.1q3.36,2.44,11.07,4.75a50.39,50.39,0,0,1,12.39,5.26,19.7,19.7,0,0,1,6.85,6.76,17.68,17.68,0,0,1,2.18,8.94,15.89,15.89,0,0,1-6.33,13.23q-6.33,4.9-17.17,4.91a32.12,32.12,0,0,1-13.19-2.67,22.17,22.17,0,0,1-9.35-7.38,18.52,18.52,0,0,1-3.33-11h11.48q0,5.67,3.72,8.77t10.67,3.11q6,0,9-2.44A7.93,7.93,0,0,0,990.33,1302Z"/><path class="cls-4" d="M280.88,379c-106.87,0-153.66-88.17-156.59-224.46-.43-20-27.65-25.4-35.61-7.05-61.45,141.55-18.76,338.55,164.38,407l72.39,22.25,16-221.3Z"/><path class="cls-4" d="M1061.79,379c106.88,0,153.67-88.17,156.6-224.46.43-20,27.65-25.4,35.61-7.05,61.45,141.55,18.76,338.55-164.38,407l-72.39,22.25-16-221.3Z"/><path class="cls-3" d="M127.51,286.66s-16-58.29-16.76-149.65a18.12,18.12,0,0,1,13.54,17.57C127.14,287,171.41,374.05,272,378.83l-19,44.29S132.19,399,111.24,268A224.15,224.15,0,0,0,127.51,286.66Z"/><path class="cls-3" d="M1215.17,286.66s16-58.29,16.76-149.65a18.12,18.12,0,0,0-13.54,17.57c-2.85,132.44-47.12,219.47-147.69,224.25l19,44.29S1210.49,399,1231.44,268A224.15,224.15,0,0,1,1215.17,286.66Z"/><path class="cls-5" d="M96.31,138.73s-61.73,155,42.86,277.8c-3.49-11.7-4.66-24.57-4.66-39.78C146.13,399,181,444.59,243.73,455.1c24.39-33.93-8.15-81.89-8.15-81.89l.73-.13a158.7,158.7,0,0,0,44.57,6L341,355.67l.31-.05.1.39L327.12,553.57,309.65,572l-56.59-17.4C69.92,486.08,27.23,289.08,88.68,147.53A18.38,18.38,0,0,1,96.31,138.73Z"/><path class="cls-5" d="M1246.37,138.73s61.73,155-42.86,277.8c3.49-11.7,4.65-24.57,4.66-39.78-11.62,22.23-46.49,67.84-109.23,78.35-24.38-33.93,8.16-81.89,8.16-81.89l-.73-.13a158.72,158.72,0,0,1-44.58,6l-60.09-23.37-.31-.05-.1.39,14.27,197.56L1033,572l56.6-17.4c183.14-68.47,225.83-265.47,164.38-407A18.38,18.38,0,0,0,1246.37,138.73Z"/><path id="BG" class="cls-5" d="M671.34,1214.29l31.25-85.4,52.29-50.29c44.17-74.87,55.78-57.31,55.78-57.31s16.26,22.23,26.71,45.63c17.44-53.81,22.09-69,37.2-87.73,22.07,0,37.17,3.52,48.79,8.2,18.6-45.62,23.25-58.49,38.36-86.56,34.85,3.52,62.73-5.83,80.17-36.25,46.52-153.25,22.16-277.28,22.16-277.28s20.34-6.47,25.57-28.07c-95.24-58.53-30.14-210.61-30.14-210.61s2.24-71.27-42.94-124c-12.15-14.18-34,32-55.77,23.38-18.6-7.36-36.69-69.88-53.42-77.24-72-28.1-153.33-45.67-184.7-36.32-15.1,7-32.58,40.72-32.58,40.72l-18.73-39.57-18.73,39.57S635.13,141.42,620,134.41c-31.37-9.35-112.69,8.22-184.7,36.32-16.73,7.36-34.83,69.88-53.42,77.24-21.77,8.62-43.62-37.56-55.77-23.38-45.18,52.76-42.94,124-42.94,124s65.1,152.08-30.14,210.61c5.23,21.6,25.57,28.07,25.57,28.07s-24.36,124,22.16,277.28C318.22,895,346.11,904.35,381,900.83c15.11,28.07,19.76,40.94,38.36,86.56,11.62-4.68,26.72-8.2,48.79-8.2,15.11,18.71,19.76,33.92,37.2,87.73,10.45-23.4,26.71-45.63,26.71-45.63s11.61-17.56,55.78,57.31l52.29,50.29Z"/><path class="cls-4" d="M671.34,798.94c20.91,0,89.44-7,95.26-32.73,62.73,0-4.63-60.84,20.92-51.47-36-46.81-33.65-104.14-15.06-111.15C762,565,671.34,554.41,671.34,554.41S580.66,565,570.22,603.59c18.59,7,20.93,64.34-15.07,111.15,25.56-9.37-41.8,51.49,20.93,51.47C581.9,792,650.43,799,671.34,798.94Z"/><path class="cls-4" d="M671.34,499.42c79,0,60.5-42.09,170.88-81.84-73.2,42.1-79,110-61.61,118.15,23.09,10.86,50-30.4,96.44-53.79,35.33-17.78,63.69-24.37,91.75-28.56a9.15,9.15,0,0,0,4.66-15.91c-14.31-12.43-47.6-24.54-88.26-21C905,389.52,985.12,374.34,957.26,317,911.94,361.44,841.08,338,819,327.48c44.15,1.19,84.82-24.54,77.87-90.06-12.79,24.57-53.45,30.4-53.45,30.4s74.36-31.56-79-117c-20.93,44.45-22.07-8.2-51.13,36.25,1.18-59.67-8.31-3.51-42-3.52s-43.18-56.15-42,3.52c-29.06-44.45-30.21,8.2-51.13-36.25-153.32,85.46-79,117-79,117s-40.66-5.83-53.45-30.4c-6.95,65.52,33.72,91.25,77.87,90.06C501.6,338,430.74,361.44,385.42,317c-27.86,57.34,52.3,72.52,72.06,99.43-40.66-3.5-74,8.61-88.26,21a9.14,9.14,0,0,0,4.66,15.91c28.05,4.19,56.42,10.78,91.75,28.56,46.47,23.39,73.35,64.65,96.44,53.79,17.42-8.2,11.59-76.05-61.61-118.15C610.83,457.33,592.35,499.45,671.34,499.42Z"/><path class="cls-4" d="M671.34,1091.44c-33.69-22.22-56.84-73.69-34.77-85.4-17.43-2.33-37.17,18.73-36,25.75-3.5-38.61,29-48,32.51-67.87,0,0,13.94,18.72,19.76,32.76,2.32-14,5.74-31.6,18.51-41,12.78,9.36,16.19,26.92,18.51,41,5.81-14,19.76-32.76,19.76-32.76,3.48,19.89,36,29.26,32.51,67.87,1.16-7-18.58-28.08-36-25.75C728.18,1017.75,705,1069.22,671.34,1091.44Z"/><path class="cls-4" d="M292.56,549.86s-10.44,73.71,62.76,110c0,0-45.3,5.86-60.41-23.38,3.49,29.24,5.82,59.66,36,105.28,2.32-15.21-1.16-21.06,4.63-64.35-13.92,73.72,72.06,112.3,72.06,112.3s-34.83,50.32,16.3,94.76c-4.66-23.4,0-42.12,12.76-57.33,17.43,35.09,52.28,24.55,72.05,87.72-2.34-40.94,40.65-44.47,63.88-50.33L538.9,734.64l23.21-73.72-30.23-78.38s-76.67,4.7-80.16,4.71-83.66-65.5-83.66-65.5l-34.85-3.5Z"/><path class="cls-4" d="M1050.12,549.86s10.43,73.71-62.76,110c0,0,45.3,5.86,60.41-23.38-3.49,29.24-5.83,59.66-36,105.28-2.31-15.21,1.17-21.06-4.62-64.35C1021,751.09,935,789.67,935,789.67s34.83,50.32-16.3,94.76c4.66-23.4,0-42.12-12.76-57.33-17.43,35.09-52.28,24.55-72.05,87.72,2.33-40.94-40.65-44.47-63.88-50.33l33.73-129.85-23.21-73.72,30.23-78.38s76.67,4.7,80.16,4.71,83.66-65.5,83.66-65.5l34.85-3.5Z"/><path class="cls-3" d="M541.74,501.34c16.81-8.13-5.9-68-69.91-83.35,17,7.78,25.15,16,33.06,28.27-9.07-5.28-40.44-27.5-90.39-16.95a54.55,54.55,0,0,1,34.85,14s-25.65-8-57.13,1.2c28.85-1.32,51.82,6.83,86.18,24.53C503.57,482,525.09,509.4,541.74,501.34Z"/><path class="cls-3" d="M800.94,501.34c-16.81-8.13,5.9-68,69.9-83.35-17,7.78-25.14,16-33.05,28.27,9.07-5.28,40.44-27.5,90.39-16.95a54.55,54.55,0,0,0-34.85,14s25.65-8,57.13,1.2c-28.86-1.32-51.82,6.83-86.19,24.53C839.11,482,817.59,509.4,800.94,501.34Z"/><path class="cls-3" d="M321.61,581.44s37.19,43.28,40.68,52.63c-18.59-5.84-20.92-7-30.21-16.37,8.13,18.72,32.54,36.26,48.8,43.28-7,8.19-18.58,15.21-37.17,12.88,9.31,55,32.55,66.68,57,77.2-5.82-31.59-2.34-44.46-1.18-58.5,3.5,49.14,50,131,109.25,156.74-12.79-33.92-19.77-78.38-2.36-114.65,19.74-31.6,25.53-80.74,19.72-97.12-33.69,4.69-80.16-5.82-80.16-5.82s77.83-4.71,89.44-43.32-191.32-70.53-191.32-70.53Z"/><path class="cls-3" d="M1021.07,581.44s-37.19,43.28-40.68,52.63c18.59-5.84,20.92-7,30.21-16.37-8.14,18.72-32.54,36.26-48.8,43.28,7,8.19,18.58,15.21,37.17,12.88-9.31,55-32.55,66.68-57,77.2,5.82-31.59,2.34-44.46,1.18-58.5-3.5,49.14-50,131-109.25,156.74,12.79-33.92,19.77-78.38,2.36-114.65-19.74-31.6-25.53-80.74-19.72-97.12,33.69,4.69,80.16-5.82,80.16-5.82s-77.83-4.71-89.44-43.32,191.32-70.53,191.32-70.53Z"/><path class="cls-3" d="M671.33,774.37c34.86,0,59.26-16.36,53.45-25.72C749.18,744,775.9,725.27,726,703c26.72-5.84-10.42-113.49,37.2-104.12-19.74-23.4-66.26-37.46-91.82-37.47s-72.08,14.07-91.83,37.47C627.14,589.53,590,697.18,616.72,703c-49.94,22.25-23.22,41,1.18,45.63-5.81,9.36,18.59,25.73,53.44,25.72Z"/><path class="cls-3" d="M671.34,355.52c33.9-1.39,107-9.33,124.45-66.65,0,11.7,0,28.08-17.44,49.13,29-12.86,34.88-33.59,36-44.45,5.82-55-58.07-59.68-55.73-101.8-16.27,23.39-17.45,65.51-17.45,65.51l-24.37-83.08-45.49-10.54-45.49,10.54-24.37,83.08S600.3,215.14,584,191.75c2.34,42.12-61.55,46.82-55.73,101.8,1.15,10.86,7,31.59,36,44.45-17.43-21.05-17.44-37.43-17.44-49.13C564.33,346.19,637.44,354.13,671.34,355.52Z"/><path class="cls-3" d="M1079.29,785.42c35-83.4,33.33-172.49,33.33-172.49,4.11-2.28,7.9-4.46,11.87-6.85,8-4.77,15.7-9.79,23.29-15A454.59,454.59,0,0,0,1191.23,557q10.3-9.19,20.07-19c6.44-6.62,12.76-13.36,18.77-20.42a366.49,366.49,0,0,0,33-44.86l-29.32-18.93c-9.06,13.25-159.46,127.45-158,132l3.59,199.61"/><path class="cls-3" d="M263.4,785.42c-35.06-83.4-33.33-172.49-33.33-172.49-4.12-2.28-7.9-4.46-11.88-6.85q-11.94-7.16-23.28-15A454.59,454.59,0,0,1,151.46,557q-10.31-9.19-20.07-19c-6.44-6.62-12.77-13.36-18.77-20.42a367.62,367.62,0,0,1-33-44.86L109,453.78C118,467,268.43,581.23,267,585.81L263.4,785.42"/><path class="cls-3" d="M671.34,460.82c33.31,0,77.17-25.72,85.7-37.42-5.43,18.72-11.63,20.28-15.5,26.52,31.76-12.47,49.93-38.37,41.84-56.16-17-37.45-66.34-14.84-112-14.86s-95-22.59-112,14.86c-8.09,17.79,10.08,43.69,41.84,56.16-3.87-6.24-10.07-7.8-15.5-26.52C594.17,435.1,638,460.83,671.34,460.82Z"/><path class="cls-6" d="M671.34,86.42,647.74,126s6-33.72-24.25-63C584,129.74,403.74,116.93,378.21,207c-12.78-3.5-12.78-12.86-9.3-26.9-108,38.64-133.33,193.09-133.33,193.09s56.93,44.44,45.33,97.09c-6.27,28.49-22.93,51.53-40.63,66.7,1.15-11.7,1.15-25.74-1.18-35.1-36-10.51-68.55-28-81.33-53.79-2.33,8.19-5.81,24.57-3.48,33.93C73,408.36,34.58,299.56,88,149.79c-135.82,311.26,166.8,444.75,166.8,444.75s-41.33,241.69,117.88,380c-3.49-22.19-8.72-40.4-3.51-59.67,23.81,118.53,68.41,93.78,95.09,135.82,0-12.85-2.33-29.2-17.41-50.22,16.24,7,45.24,35,47,104.51,9.85-12.26,24.34-52.56,24.34-52.56s2.27,71.83,63.86,119.78c0,0,18.58-32.77,8.11-76,15.65,66.33,76.35,129.23,81.06,134v.3l.15-.15.15.15v-.3c4.69-4.79,65.41-67.7,81.06-134-10.47,43.28,8.11,76,8.11,76,61.58-48,63.86-119.78,63.86-119.78s14.48,40.3,24.34,52.56c1.76-69.49,30.76-97.51,47-104.51-15.09,21-17.41,37.37-17.41,50.22,26.68-42,71.27-17.29,95.09-135.82,5.21,19.27,0,37.48-3.51,59.67,159.21-138.31,117.88-380,117.88-380s302.62-133.49,166.8-444.75c53.39,149.77,15,258.57-66.32,332.25,2.32-9.36-1.16-25.74-3.48-33.93-12.78,25.74-45.32,43.28-81.33,53.79-2.33,9.36-2.33,23.4-1.18,35.1-17.7-15.17-34.36-38.21-40.64-66.7-11.6-52.65,45.34-97.09,45.34-97.09s-25.3-154.45-133.33-193.09c3.48,14,3.48,23.4-9.3,26.9-25.53-90.09-205.8-77.28-245.28-144-30.21,29.24-24.26,63-24.26,63Zm0,177.84,21.08-26.91a66.42,66.42,0,0,0,10.66-48c6.77,9.36,17.23,15.21,31.16,46.81,7-45.63,21.13-76,30.43-85.4,17.21,49.14,84.59,48,96.19,97.14,7-11.7,16.27-30.42,15.32-62,58.08,31.61,63.88,65.54,41.79,119.36,11.2-.87,23.1-3.8,34.76-8,61.61-22.19,116.84,47.56,81.13,102.79-8.44,13.05-18.49,22.13-27.64,25.74-20.92,14-24.38-45.63-25.54-65.52-9.3,39.77-62.74,32.74-95.28,56.13,49.92-6,108.68,15.22,109,32.87a11.07,11.07,0,0,1-7.89,10.59c-35.72,11.07-103.63,29.39-142,61.82-29,24.56-74.16,44.44-77.64,15.19S782,452.66,843.58,416.41c-97.6,51.45-88.32,118.14-156.87,138,0,0,92.73,11.73,93.88,52.68-19.76,18.71-4.68,90.09,6.93,107.64-7.17-3.51-34.84-9.37-61.56-11.72,44.14,16.4,75.49,48,26.7,59.68,5.8,17.55-27.88,31.58-81.32,31.56s-87.12-14-81.32-31.56C541.23,751,572.58,719.42,616.72,703c-26.72,2.35-54.39,8.21-61.57,11.72,11.62-17.55,26.7-88.93,6.94-107.64,1.15-41,93.88-52.68,93.88-52.68-68.55-19.87-59.27-86.56-156.87-138,61.58,36.25,80.18,91.23,76.71,120.49s-48.59,9.37-77.64-15.19c-38.36-32.43-106.27-50.75-142-61.82a11.07,11.07,0,0,1-7.89-10.59c.31-17.65,59.06-38.89,109-32.87C424.74,393,371.3,400.07,362,360.3c-1.16,19.89-4.63,79.56-25.54,65.52-9.15-3.61-19.2-12.69-27.64-25.74-35.71-55.23,19.52-125,81.13-102.79,11.65,4.2,23.56,7.13,34.76,8-22.09-53.82-16.29-87.75,41.78-119.36-.95,31.59,8.35,50.31,15.33,62,11.6-49.14,79-48,96.19-97.14,9.29,9.36,23.45,39.77,30.43,85.4,13.93-31.6,24.39-37.45,31.15-46.81a66.48,66.48,0,0,0,10.67,48ZM536.64,953.42c14.84-13.88,18.07-24.84,15.59-38.6,13.44,67.66-45.9,63.43-49.26,83.08,13.9-97-45.68-121.77-63-135.7,23.25,58.49-19.72,99.45-19.72,99.45C408.82,852.85,314.72,851.71,299.6,794.38c23.25,22.22,67.39,17.53,87.13,0-64.86-16.35-57-94.75-51.15-117-13.93,25.75-16.25,36.28-13.92,60.85-45.12-48-57-140.38-29.1-188.36,10.46,39.77,66.23,66.67,93,88.89-50.93-59.66-33.72-91.25-22.31-103,22.09,43.29,67.41,73.69,145.24,60.8-12.77,24.57-40.65,30.43-62.72,35.12,51.11,3.49,69.7-2.37,89.44-11.73-56.68,126.38,2.61,244.53,37.46,244.51C572.63,864.49,525,885.57,536.64,953.42Zm134.7,181.47c-12.14-13-55.66-45.77-55.63-109,0,15.77-10.34,25.59-11.41,44.49-8.19-10.65-28.87-33.75-11.27-73.29,16.83-11.12,29.59-20.29,41.2-34.34,0,10.53,16.79,27.85,16.16,40.29a71,71,0,0,1,21-47.32A70.89,70.89,0,0,1,692.29,1003c-.63-12.44,16.16-29.76,16.16-40.29,11.61,14,24.37,23.22,41.2,34.34,17.59,39.54-3.08,62.64-11.27,73.29-1.07-18.9-11.4-28.72-11.41-44.49,0,63.23-43.48,96-55.63,109M1007.1,677.37c5.8,22.23,13.7,100.63-51.15,117,19.74,17.56,63.88,22.25,87.12,0C1028,851.71,933.86,852.85,922.41,961.65c0,0-43-41-19.72-99.45-17.3,13.93-76.89,38.67-63,135.7-3.36-19.65-62.7-15.42-49.26-83.08-2.48,13.76.75,24.72,15.59,38.6,11.63-67.85-36-88.93-36-88.93,34.85,0,94.14-118.13,37.46-244.51,19.74,9.36,38.33,15.22,89.44,11.73-22.07-4.69-50-10.55-62.72-35.12,77.83,12.89,123.15-17.51,145.23-60.8,11.42,11.71,28.63,43.3-22.3,103,26.72-22.22,82.49-49.12,93-88.89,27.87,48,16,140.4-29.1,188.36C1023.35,713.65,1021,703.12,1007.1,677.37Z"/><path class="cls-4" d="M564.48,821.21a99.81,99.81,0,0,0,4.65,11.7l53.45,18.7s-7,22.23-41.82,16.39c25.57,26.9,65.06,12.85,65.06,12.85l3.47-44.46-63.9-17.53Z"/><path class="cls-4" d="M778.2,821.21a99.81,99.81,0,0,1-4.65,11.7l-53.45,18.7s7,22.23,41.82,16.39c-25.57,26.9-65.06,12.85-65.06,12.85l-3.47-44.46,63.9-17.53Z"/><path class="cls-3" d="M671.34,910.09s18.54,2.35,19.69,16.39c38.34,0,60.42-24.55,70.89-58.48,0,0-31.37,16.37-44.15,10.52-7.47-3.43-17.42-12.88-17.42-31.6,8.14-1.17,74-20.12,77.85-25.71-4.65-9.36-14-18.66-22.07-16.39-23.76,6.72-44,14.23-84.79,14.21s-61-7.49-84.79-14.21c-8-2.27-17.42,7-22.07,16.39,3.88,5.59,69.71,24.54,77.84,25.71,0,18.72-9.94,28.17-17.41,31.6C612.13,884.37,580.76,868,580.76,868c10.47,33.93,32.55,58.49,70.88,58.48C652.8,912.44,671.34,910.09,671.34,910.09Z"/><path class="cls-5" d="M671.34,910.09s18.54,2.35,19.69,16.39c38.34,0,60.42-24.55,70.89-58.48-12.79,36.27-53.46,45.61-53.46,45.61a96.32,96.32,0,0,0-31.36-9.37c-2.44-.25-5.76-14-5.76-22.23,0,8.19-3.32,22-5.76,22.23a96.43,96.43,0,0,0-31.37,9.37s-40.66-9.34-53.45-45.61c10.47,33.93,32.55,58.49,70.88,58.48C652.8,912.44,671.34,910.09,671.34,910.09Z"/><path class="cls-3" d="M223.39,1168.79h-57.3l-10,32.63H111.42L175,1026.74h39.31l64.08,174.68h-44.9Zm-47.29-32.51h37.28l-18.7-60.59Z"/><path class="cls-3" d="M435.9,1201.42H394.33l-61.47-108.69v108.69H291.05V1026.74h41.81l61.35,108.7v-108.7H435.9Z"/><path class="cls-3" d="M604.34,1179.82q-9.65,10.8-28.23,17.4a121,121,0,0,1-40.74,6.6q-34.07,0-54.44-21t-21.8-58.42l-.12-15.12q0-25.79,9.05-45T494,1034.6q16.86-10.38,39-10.38,32.41,0,50.33,14.94t20.91,44.57H564q-2.15-14.64-9.3-20.88t-20.25-6.23q-15.72,0-24.3,13.43t-8.69,38.39V1119q0,26.16,8.87,39.29t27.94,13.14q16.32,0,24.3-7.32V1137H533.46v-28.92h70.88Z"/><path class="cls-3" d="M763.67,1026.74v114.33q0,19.44-8.22,33.66a53.39,53.39,0,0,1-23.58,21.65q-15.37,7.44-36.33,7.44-31.69,0-49.91-16.56T627,1141.91V1026.74h42.05v116q.72,28.68,26.45,28.68,13,0,19.65-7.2t6.67-23.4V1026.74Z"/><path class="cls-3" d="M832.57,1169h72.79v32.39H790.76V1026.74h41.81Z"/><path class="cls-3" d="M1023.76,1168.79h-57.3l-10,32.63H911.79l63.61-174.68h39.31l64.08,174.68h-44.9Zm-47.29-32.51h37.29l-18.71-60.59Z"/><path class="cls-3" d="M1155.87,1139.63h-22.64v61.79h-41.81V1026.74h68.26q30.84,0,48.24,13.78t17.39,39q0,18.22-7.32,30.2t-22.93,19.42l36.21,70.53v1.8h-44.79Zm-22.64-32.39h26.45q11.91,0,17.93-6.31t6-17.62q0-11.31-6.07-17.74t-17.87-6.44h-26.45Z"/><path class="cls-3" d="M846.76,547.39c18.23-21.58,61.65-45.55,105.79-42,3.21,25.9-17.78,55.83-40.09,66.61C900.25,577.89,854.25,577.62,846.76,547.39Z"/><path class="cls-5" d="M952.55,505.37c-44.14-3.53-87.56,20.44-105.79,42,.37,1.48-.54-1.33,0,0C871,524.74,909.49,512.3,942,512.3c3.49,9.36,2.32,24.56-3.72,37.49C948.18,536.61,954.4,520.32,952.55,505.37Z"/><path class="cls-3" d="M495.93,547.39c-18.23-21.58-61.65-45.55-105.8-42-3.2,25.9,17.79,55.83,40.1,66.61C442.43,577.89,488.43,577.62,495.93,547.39Z"/><path class="cls-5" d="M390.13,505.37c44.15-3.53,87.57,20.44,105.8,42-.37,1.48.54-1.33,0,0-24.23-22.65-62.74-35.09-95.26-35.09-3.49,9.36-2.33,24.56,3.71,37.49C394.51,536.61,388.28,520.32,390.13,505.37Z"/></g></g></svg>